<svg xmlns="http://www.w3.org/2000/svg" xmlns:xlink="http://www.w3.org/1999/xlink" width="396" zoomAndPan="magnify" viewBox="0 0 297 410.99999" height="548" preserveAspectRatio="xMidYMid meet" version="1.0"><defs><clipPath id="14cea63623"><path d="M 74 44 L 297 44 L 297 224 L 74 224 Z M 74 44 " clip-rule="nonzero"/></clipPath><clipPath id="d003356b78"><path d="M 296.816406 102.503906 L 89.503906 223.417969 L 30.179688 121.703125 L 237.492188 0.789062 Z M 296.816406 102.503906 " clip-rule="nonzero"/></clipPath><clipPath id="207358b29d"><path d="M 296.816406 102.503906 L 89.503906 223.417969 L 30.179688 121.703125 L 237.492188 0.789062 Z M 296.816406 102.503906 " clip-rule="nonzero"/></clipPath><clipPath id="e64b96b961"><path d="M 296.816406 102.503906 L 89.503906 223.417969 L 30.179688 121.703125 L 237.492188 0.789062 Z M 296.816406 102.503906 " clip-rule="nonzero"/></clipPath><clipPath id="0651f4d9ed"><path d="M 0 187 L 223 187 L 223 367 L 0 367 Z M 0 187 " clip-rule="nonzero"/></clipPath><clipPath id="42bf8bfd76"><path d="M 266.859375 289.34375 L 59.542969 410.257812 L 0.21875 308.542969 L 207.535156 187.628906 Z M 266.859375 289.34375 " clip-rule="nonzero"/></clipPath><clipPath id="650cdf6834"><path d="M 207.5 187.566406 L 0.183594 308.484375 L 59.507812 410.195312 L 266.824219 289.28125 Z M 207.5 187.566406 " clip-rule="nonzero"/></clipPath><clipPath id="136381987b"><path d="M 207.5 187.566406 L 0.183594 308.484375 L 59.507812 410.195312 L 266.824219 289.28125 Z M 207.5 187.566406 " clip-rule="nonzero"/></clipPath></defs><rect x="-29.7" width="356.4" fill="#ffffff" y="-41.099999" height="493.199988" fill-opacity="1"/><g clip-path="url(#14cea63623)"><g clip-path="url(#d003356b78)"><g clip-path="url(#207358b29d)"><g clip-path="url(#e64b96b961)"><path fill="#000000" d="M 89.53125 223.402344 C 57.65625 166.5 77.210938 94.320312 133.867188 61.277344 C 190.457031 28.273438 262.910156 46.785156 296.742188 102.546875 Z M 89.53125 223.402344 " fill-opacity="1" fill-rule="nonzero"/></g></g></g></g><g clip-path="url(#0651f4d9ed)"><g clip-path="url(#42bf8bfd76)"><g clip-path="url(#650cdf6834)"><g clip-path="url(#136381987b)"><path fill="#000000" d="M 0.210938 308.464844 C 34.046875 364.226562 106.5 382.742188 163.152344 349.699219 C 219.742188 316.691406 239.300781 244.515625 207.425781 187.609375 Z M 0.210938 308.464844 " fill-opacity="1" fill-rule="nonzero"/></g></g></g></g></svg>