<?xml version="1.0" standalone="no"?>
<!DOCTYPE svg PUBLIC "-//W3C//DTD SVG 20010904//EN"
 "http://www.w3.org/TR/2001/REC-SVG-20010904/DTD/svg10.dtd">
<svg version="1.0" xmlns="http://www.w3.org/2000/svg"
 width="1563.000000pt" height="1563.000000pt" viewBox="0 0 1563.000000 1563.000000"
 preserveAspectRatio="xMidYMid meet">
<metadata>
Created by potrace 1.14, written by Peter Selinger 2001-2017
</metadata>
<g transform="translate(0.000000,1563.000000) scale(0.100000,-0.100000)"
fill="#000000" stroke="none">
<path d="M0 7815 l0 -7815 7815 0 7815 0 0 7815 0 7815 -7815 0 -7815 0 0
-7815z m10390 7584 c1057 -63 2147 -467 3014 -1119 238 -179 379 -302 612
-534 211 -212 347 -367 509 -581 101 -133 345 -496 345 -511 -1 -12 -9826
-5656 -9848 -5658 -13 -1 -45 55 -123 209 -328 653 -521 1356 -579 2104 -15
203 -12 708 5 899 90 982 405 1873 947 2685 708 1059 1759 1850 2993 2250 240
78 332 102 600 157 512 104 954 133 1525 99z m287 -6866 c271 -506 488 -1164
577 -1753 76 -501 87 -1038 31 -1525 -88 -764 -334 -1506 -720 -2180 -618
-1078 -1579 -1927 -2740 -2419 -427 -181 -989 -335 -1425 -390 -463 -59 -990
-64 -1415 -15 -981 113 -1940 491 -2735 1078 -494 364 -922 804 -1282 1317
-121 174 -212 324 -202 334 9 8 697 404 6649 3825 1386 797 2671 1535 2855
1641 184 107 338 194 342 194 4 0 33 -48 65 -107z"/>
</g>
</svg>
